<?xml version="1.0" standalone="no"?><svg xmlns="http://www.w3.org/2000/svg" viewBox="0 0 1440 320"><path fill="#0099ff" fill-opacity="1" d="M0,64L11.4,85.3C22.9,107,46,149,69,186.7C91.4,224,114,256,137,250.7C160,245,183,203,206,160C228.6,117,251,75,274,80C297.1,85,320,139,343,186.7C365.7,235,389,277,411,277.3C434.3,277,457,235,480,213.3C502.9,192,526,192,549,165.3C571.4,139,594,85,617,74.7C640,64,663,96,686,106.7C708.6,117,731,107,754,128C777.1,149,800,203,823,192C845.7,181,869,107,891,90.7C914.3,75,937,117,960,165.3C982.9,213,1006,267,1029,245.3C1051.4,224,1074,128,1097,90.7C1120,53,1143,75,1166,69.3C1188.6,64,1211,32,1234,16C1257.1,0,1280,0,1303,32C1325.7,64,1349,128,1371,149.3C1394.3,171,1417,149,1429,138.7L1440,128L1440,320L1428.6,320C1417.1,320,1394,320,1371,320C1348.6,320,1326,320,1303,320C1280,320,1257,320,1234,320C1211.4,320,1189,320,1166,320C1142.9,320,1120,320,1097,320C1074.3,320,1051,320,1029,320C1005.7,320,983,320,960,320C937.1,320,914,320,891,320C868.6,320,846,320,823,320C800,320,777,320,754,320C731.4,320,709,320,686,320C662.9,320,640,320,617,320C594.3,320,571,320,549,320C525.7,320,503,320,480,320C457.1,320,434,320,411,320C388.6,320,366,320,343,320C320,320,297,320,274,320C251.4,320,229,320,206,320C182.9,320,160,320,137,320C114.3,320,91,320,69,320C45.7,320,23,320,11,320L0,320Z"></path></svg>